<svg id="Layer_1" data-name="Layer 1" xmlns="http://www.w3.org/2000/svg" viewBox="0 0 460 460"><defs><style>.cls-1{fill:#fff;}.cls-2{fill:#00205c;}.cls-3{fill:#00aeef;}</style></defs><rect class="cls-1" width="460" height="460"/><polygon class="cls-1" points="401.17 398.56 71.17 398.56 71.17 68.56 401.17 68.56 401.17 398.56 401.17 398.56"/><path class="cls-2" d="M147.36,166.24v14.31h-1.84a20.89,20.89,0,0,0-8.15-9.29,22.58,22.58,0,0,0-12.21-3.45q-9,0-14,6.61T106.28,193q0,11.09,4.91,16.87t14.17,5.8q8.91,0,8.92-5.41v-7.59q0-5.24-6.1-6.26V195h25v1.49a7.63,7.63,0,0,0-4.53,2.45,8.72,8.72,0,0,0-1.26,5.22v10.82q-8.93,3.67-23,3.67a39.31,39.31,0,0,1-16.7-3.37,27,27,0,0,1-11.42-9.57,23.92,23.92,0,0,1-4.13-13.53,24.44,24.44,0,0,1,9.16-19.47q9.17-7.75,23.09-7.76a40.8,40.8,0,0,1,12,2,19.1,19.1,0,0,0,4.95,1.06,6.35,6.35,0,0,0,4.26-1.74Z" transform="translate(0.38 -0.3)"/><path class="cls-2" d="M182.09,203.68h11.54l-5.9-13.51-5.64,13.51Zm11.22,13.61v-1a10.59,10.59,0,0,0,3.36-1,1.76,1.76,0,0,0,1-1.6,7.28,7.28,0,0,0-.75-2.55l-2.24-5.12H180.85l-1.92,4.42a7.32,7.32,0,0,0-.73,2.72c0,1.47,1.29,2.5,3.89,3.09v1H169.57v-1a6.84,6.84,0,0,0,4-2,18.18,18.18,0,0,0,3.33-5.53L188,183.1h5.29l11.78,26.68a15.44,15.44,0,0,0,3.18,5,6.43,6.43,0,0,0,4,1.57v1Z" transform="translate(0.38 -0.3)"/><path class="cls-2" d="M248.22,184v1a9,9,0,0,0-4,1.53,3.84,3.84,0,0,0-.91,2.89v22.45a3,3,0,0,0,1.28,2.83c.85.5,2.46.76,4.83.76a10.08,10.08,0,0,0,5.77-1.41,16.08,16.08,0,0,0,4.29-5.35h1.13l-1.13,8.65H229.91v-1c2.06-.44,3.38-1,4-1.58s.88-1.88.88-3.81V189.61a4.29,4.29,0,0,0-.94-3.16,8.61,8.61,0,0,0-3.91-1.51v-1Z" transform="translate(0.38 -0.3)"/><path class="cls-2" d="M304,216.31v1H285.83v-1a7.4,7.4,0,0,0,3.86-1.44c.66-.65,1-1.84,1-3.56V185.86h-3.87a10.26,10.26,0,0,0-5.56,1.3,7.75,7.75,0,0,0-3.05,4.15h-1.13l.38-8h1.2a8.19,8.19,0,0,0,3.82.7h25a8,8,0,0,0,3.82-.7h1.2l.38,8h-1.13a7.75,7.75,0,0,0-3.05-4.15,10.26,10.26,0,0,0-5.56-1.3h-3.87v25.5a5,5,0,0,0,1,3.49,6.61,6.61,0,0,0,3.75,1.46Z" transform="translate(0.38 -0.3)"/><path class="cls-3" d="M335.16,186.14a6.33,6.33,0,0,0,.25,2.15,56,56,0,0,1,5.38-5.49l5.88-5.33a.68.68,0,0,0,.32-.59c0-.86-1.44-1.67-2.69-1.67-5.26,0-9.14,6-9.14,10.93Zm24.54.75a4,4,0,0,1-3.95-4.09c0-4.31,6.26-8.61,11-8.61,6.7,0,8.26,6.73,12.27,6.73a2.08,2.08,0,0,0,2.13-2c0-1-1.76-1.72-1.76-3.28,0-.92,1-1.62,2.07-1.62a2.65,2.65,0,0,1,2.63,2.8c0,3.45-4.63,6.68-8.45,6.68-2.19,0-4.13-1.73-5.51-3-.13,3.66-.63,7.65-3.07,11.42-2.94,4.47-8.51,10.23-19.9,10.23-8.89,0-15.72-5.44-15.72-13.79,0-6.83,8.08-16,16.47-16a6.08,6.08,0,0,1,4,1.24c1.63-1.72,7.14-5.44,7.14-7.81,0-.75-.56-2-.56-2.47,0-1.24,1.19-1.94,2.5-1.94a2.13,2.13,0,0,1,2.19,2.42c0,2.21-4,5.65-5.76,7.11l-12.95,10.61-2.45,2.1-3,3.06c-1.32,1.4-2.32,2.54-2.32,4.37,0,1.45,1.25,2.85,2.32,3.87,2.13,2.1,6.07,3.23,9.27,3.23A22.74,22.74,0,0,0,363.77,192c3.56-3.45,4.5-8.19,4.75-12.6-.37-1.13-3.75-2.26-5.44-2.26-2.2,0-4.39,1.5-4.39,3.44,0,3.72,4.13,1.35,4.13,4.36,0,1.46-1.75,2-3.12,2Z" transform="translate(0.38 -0.3)"/><path class="cls-2" d="M107.17,258h-.43a5.89,5.89,0,0,0-1.94-3.18,5.31,5.31,0,0,0-3.41-1.13,4.26,4.26,0,0,0-3.49,1.6,7.79,7.79,0,0,0,.22,8.9,5.37,5.37,0,0,0,4.16,1.64,6.58,6.58,0,0,0,2.62-.51,8.53,8.53,0,0,0,2.43-1.64v.72a7.93,7.93,0,0,1-6.36,2.75,8.69,8.69,0,0,1-5.87-1.93,6.25,6.25,0,0,1-2.26-5A6.58,6.58,0,0,1,95.28,255a9,9,0,0,1,6-2.09,11.89,11.89,0,0,1,3.35.56,4.38,4.38,0,0,0,1.09.25,1.13,1.13,0,0,0,1-.7h.43v5Z" transform="translate(0.38 -0.3)"/><path class="cls-2" d="M138.38,260.16a8,8,0,0,0-1.22-4.8,4.2,4.2,0,0,0-3.59-1.65,4.16,4.16,0,0,0-3.56,1.65,8.07,8.07,0,0,0-1.22,4.82,7.47,7.47,0,0,0,1.23,4.58,4.17,4.17,0,0,0,3.55,1.64,4.25,4.25,0,0,0,3.54-1.62,7.36,7.36,0,0,0,1.27-4.62Zm3.77-.09a6.33,6.33,0,0,1-2.42,5.1,10.46,10.46,0,0,1-12.3,0,6.63,6.63,0,0,1,0-10.21,10.41,10.41,0,0,1,12.3,0,6.36,6.36,0,0,1,2.42,5.11Z" transform="translate(0.38 -0.3)"/><path class="cls-2" d="M181,253.3v.39a2.69,2.69,0,0,0-1.39.53,1.35,1.35,0,0,0-.44,1.08,3.17,3.17,0,0,0,.05.58l1.42,8.44a2.37,2.37,0,0,0,.73,1.43,3.35,3.35,0,0,0,1.67.67v.4h-7.76v-.4a2.66,2.66,0,0,0,1.39-.66,1.85,1.85,0,0,0,.42-1.3,6,6,0,0,0-.1-1l-1.28-7.71-5.17,11.09H170l-5.11-11.09-1.36,7.94a4.58,4.58,0,0,0-.08.86c0,1.18.64,1.81,1.93,1.89v.4h-5.7v-.4a2.63,2.63,0,0,0,1.88-.71,4.47,4.47,0,0,0,.91-2.27l1.56-8.82a3.46,3.46,0,0,0-2.29-.93v-.39h5.69l4.1,8.91,4.16-8.91Z" transform="translate(0.38 -0.3)"/><path class="cls-2" d="M206.67,254.06h-1.33v5.81a4.8,4.8,0,0,0,1.16.15,3.07,3.07,0,0,0,2.25-.79,2.94,2.94,0,0,0,.82-2.23,2.91,2.91,0,0,0-.8-2.12,2.85,2.85,0,0,0-2.1-.82Zm-6.79-.76H208a6.82,6.82,0,0,1,3.93,1,3,3,0,0,1,1.44,2.59,3.3,3.3,0,0,1-1.59,2.81,7.77,7.77,0,0,1-4.39,1.09,19.61,19.61,0,0,1-2-.11v3.86a1.73,1.73,0,0,0,.43,1.32,2.88,2.88,0,0,0,1.54.57v.4h-7.43v-.4a3,3,0,0,0,1.6-.61,2.1,2.1,0,0,0,.4-1.44v-8.83a1.7,1.7,0,0,0-.38-1.27,3.45,3.45,0,0,0-1.62-.58v-.39Z" transform="translate(0.38 -0.3)"/><path class="cls-2" d="M232.54,261.3h4.69l-2.4-5.49-2.29,5.49Zm4.56,5.52v-.4a4.15,4.15,0,0,0,1.37-.39.71.71,0,0,0,.39-.65,3,3,0,0,0-.3-1l-.91-2.08H232l-.78,1.79a3.13,3.13,0,0,0-.29,1.11c0,.6.52,1,1.57,1.25v.4h-5.07v-.4a2.78,2.78,0,0,0,1.6-.82,7.59,7.59,0,0,0,1.35-2.25l4.52-10.4h2.15l4.78,10.82a6.21,6.21,0,0,0,1.29,2,2.6,2.6,0,0,0,1.64.63v.4Z" transform="translate(0.38 -0.3)"/><path class="cls-2" d="M272.11,253.69v-.39h5.31v.39c-1.53.08-2.29.81-2.29,2.21V267h-.51l-11.31-11v8.26a2,2,0,0,0,.46,1.52,3.43,3.43,0,0,0,1.85.62v.4H260.2v-.4a2.6,2.6,0,0,0,1.58-.64,2.22,2.22,0,0,0,.48-1.57V255a12.27,12.27,0,0,0-1.27-1,2.23,2.23,0,0,0-.82-.31v-.39h4.72l9.19,9.06v-6.08a3.11,3.11,0,0,0-.41-1.86,2.58,2.58,0,0,0-1.56-.73Z" transform="translate(0.38 -0.3)"/><path class="cls-2" d="M308.57,255.15l-3.71,4.54v4.84a1.76,1.76,0,0,0,.42,1.31,3,3,0,0,0,1.57.58v.4H299.4v-.4a2.63,2.63,0,0,0,1.54-.58,1.88,1.88,0,0,0,.45-1.4v-3.95l-4.08-5.39a4.35,4.35,0,0,0-1.06-1.06,2.69,2.69,0,0,0-1.17-.35v-.39h7.16v.39c-.75,0-1.14.25-1.14.66a1.83,1.83,0,0,0,.45,1l2.71,3.61,2.39-3a2.07,2.07,0,0,0,.57-1.24c0-.53-.4-.87-1.21-1v-.39h4.87v.39a3.45,3.45,0,0,0-2.31,1.46Z" transform="translate(0.38 -0.3)"/></svg>