<svg id="Layer_1" data-name="Layer 1" xmlns="http://www.w3.org/2000/svg" viewBox="0 0 460 460"><defs><style>.cls-1{fill:#fefefe;}.cls-2{fill:#c06b13;}</style></defs><rect width="460" height="460"/><path class="cls-1" d="M123,257c0,.57-.43.86-1.3.86a7.71,7.71,0,0,1-1.31-.11c-4-.2-7.46-.3-10.33-.3s-7.43.1-13.25.3c-1.94.07-3.38.11-4.31.11s-1.51-.31-1.51-.91a.58.58,0,0,1,.55-.6c.37-.07,1.66-.13,3.87-.2,2.07-.4,3.27-1,3.61-1.86s.5-3.52.5-8.08v-52c-.07-1.2-.1-1.77-.1-1.71q0-2.5-5-2.5c-1.87,0-2.81-.24-2.81-.71s.14-.73.41-.8a17.06,17.06,0,0,1,2.6-.1H121c.87,0,1.3.25,1.3.76a.66.66,0,0,1-.45.71,20.82,20.82,0,0,1-3.06.24c-2.08.13-3.35.57-3.81,1.3l-.31,1.9v56.62q0,4.31,1,5.11t6.47,1.1c.6.07.9.36.9.85Z"/><path class="cls-1" d="M174.49,257.13c0,.54-.84.81-2.51.81H150.5c-.94,0-1.4-.25-1.4-.75s.39-.66,1.18-.66h.79c1.7,0,2.71-.22,3-.66s.45-1.93.45-4.48V231.92q0-10.8-1.39-12.91c-.79-1.21-2.2-1.82-4.25-1.82a7,7,0,0,0-5,1.9,6.39,6.39,0,0,0-2,4.81v30.33a2,2,0,0,0,.85,1.56,9.81,9.81,0,0,0,3.27.44c.53,0,.8.21.8.6s-.24.64-.7.7-2.15.1-5,.1-5.25,0-7.13.1c-3.68.14-7.42.21-11.24.21-.8,0-1.2-.24-1.2-.71s1-.8,3.06-.8,3.23-.4,3.56-1.2l.3-1.4v-23c0-6.47-.06-9.84-.2-10.11-.2-1-1.1-1.5-2.71-1.5H122.1c-1.07,0-1.6-.22-1.6-.66s.39-.68,1.19-.75q11.19-.49,17.88-4.71a3.05,3.05,0,0,1,1.1-.4c.53,0,.8.53.8,1.6V220a16.49,16.49,0,0,1,13.65-6.92q8.63,0,11.24,6a17.56,17.56,0,0,1,1.35,5.62q.25,3.1.25,12.84v14.56q0,3.1.51,3.66c.33.37,1.42.55,3.26.55s2.76.27,2.76.8Z"/><path class="cls-1" d="M207.23,251.31q0,1.11-1.92,2.91-5,4.72-13.65,4.72-8,0-10.51-3.91a6.46,6.46,0,0,1-1.17-2.81c-.1-.87-.15-3.12-.15-6.73v-4.82a36.61,36.61,0,0,0,.2-4l-.2-2.11V218.3c0-1.21-.16-1.91-.5-2.11a8.29,8.29,0,0,0-3-.3c-2,0-3-.27-3-.81s.37-.66,1.1-.8q9.43-.3,16.26-10.23.9-1.41,1.41-1.41t.6,1.41q-.1,8.63.7,9.43c.54.54,2.17.8,4.92.8a29.47,29.47,0,0,0,5.92-.4.85.85,0,0,1,.4-.1c.27,0,.4.21.4.63q0,1.47-1.29,1.47-4.08.1-9.06.11h-1.39v2.09q0,26.76.4,31.36.91,5.79,5.71,5.79c1.42,0,3.26-1,5.5-3,1.08-.94,1.76-1.41,2-1.41s.31.17.31.5Z"/><path class="cls-1" d="M237.89,236.56q0-12.45-1.69-17.06-1.9-5.12-6.09-5.12-3.88,0-6.08,5.37t-2.2,14.8q0,13.15,2.6,18.67,2.08,4.41,5.88,4.41,4.69,0,6.19-5.61,1.4-5.33,1.39-15.46Zm15.16-.1a21,21,0,0,1-8.44,17.36A23,23,0,0,1,230.06,259a22.43,22.43,0,0,1-16.3-6.78,21.68,21.68,0,0,1-6.88-16,22.18,22.18,0,0,1,6.88-16.41,22.79,22.79,0,0,1,16.6-6.77,21.52,21.52,0,0,1,16,6.87,22.86,22.86,0,0,1,6.68,16.51Z"/><path class="cls-2" d="M275.75,186.32v65.39c.06,1.68.54,2.75,1.42,3.21s3.24.88,7.1,1.21q1.11.11,1.11.9c0,.67-.53,1-1.6,1-.2,0-.71,0-1.51-.09-1-.07-1.84-.1-2.51-.1l-10.33-.31-17.06.5c-.94,0-1.41-.26-1.41-.8s.13-.64.4-.7a28.43,28.43,0,0,1,3.31-.2q5.52-.21,5.93-2.62.19-1.31.2-20.43V190.7h-2.61"/><path class="cls-2" d="M310.72,227.93c.06-5.11-.31-8.67-1.11-10.66a4.27,4.27,0,0,0-4.21-3q-6.12,0-7,13.65h12.35Zm12.64,17.56q0,2.2-2.61,5.82Q315.13,259,306.1,259q-10.14,0-16.66-6.42t-6.52-16.46a22.75,22.75,0,0,1,6.32-16.41A21,21,0,0,1,305,213.18,20.37,20.37,0,0,1,315.94,216a14.37,14.37,0,0,1,6.52,8.93,32.45,32.45,0,0,1,.6,4.31q-2.31.27-18.57.4-2.5,0-6.32.21-.3,3.6-.3,6.09,0,11.7,4.92,16.6a9.71,9.71,0,0,0,7.12,2.9,11.33,11.33,0,0,0,6.78-2.41,15.41,15.41,0,0,0,5-6.22c.54-1.27,1-1.91,1.31-1.91s.4.2.4.6Z"/><path class="cls-2" d="M348.36,240.47v-4.91q-9.72,1.91-9.73,11,0,7,4.82,7,2.7,0,3.81-3c.74-2,1.1-5.38,1.1-10.14Zm21,11.95c0,.55-.54,1.29-1.61,2.25a15.13,15.13,0,0,1-10.63,4q-4.12,0-6-1.73t-2.46-6.2q-4.51,8.23-12.35,8.23a9.36,9.36,0,0,1-7-2.71,9.59,9.59,0,0,1-2.66-7q0-12.64,21.67-14.95v-2.11q0-10-.7-12.34l-.1-.5q-1.41-5-7.12-5a7.41,7.41,0,0,0-5.32,1.91,5.32,5.32,0,0,0-2,3.71c0,.67.8,1.07,2.41,1.2q3.62.32,3.61,4.42a4.94,4.94,0,0,1-1.45,3.66,5.11,5.11,0,0,1-3.77,1.46,6.65,6.65,0,0,1-4.76-1.76,5.87,5.87,0,0,1-1.86-4.46q0-4.32,4.32-7.83T343,213.08q10.43,0,14.55,3.71,3.3,3.12,3.31,10.84v17.16c0,3.34,0,5.28.1,5.82q.49,4.21,2.91,4.21c1.14,0,2.54-.8,4.22-2.4.33-.34.6-.51.8-.51a.45.45,0,0,1,.5.51Z"/><path class="cls-2" d="M251.6,191.33c48.13-13.5,57.93-14.37,67.62-14.37,7.51,0,13.82,1.09,18.83,3.16,7.84,3.37,11.76,7.4,11.76,12.19,0,5.88-6.75,10.24-16,10.24-8.06,0-13.94-3.16-13.94-7.41,0-1.19.54-2.17,1.31-2.17.43,0,.76.32.76.54s0,.33-.44.87a2.18,2.18,0,0,0-.22,1c0,2.94,6.1,5.88,12.31,5.88,8.16,0,14.59-4,14.59-9.14a6.87,6.87,0,0,0-3.49-6.1c-3.48-2.29-12.52-3.81-22.1-3.81-15.24,0-27.44,1.74-70.23,12-22.54,5.34-39.85,8.39-53.24,8.39-17.53,0-28.53-4.9-28.53-12.63,0-1.74.87-3.27,2-3.27a.73.73,0,0,1,.76.65c0,.33-.11.33-.65.88a2.28,2.28,0,0,0-.66,1.74c0,2,1,3.81,3.27,5.55,4.36,3.59,12.3,5.45,23.19,5.45,14,0,28.09-2.51,53.14-9.59Z"/></svg>