<svg id="Layer_1" data-name="Layer 1" xmlns="http://www.w3.org/2000/svg" xmlns:xlink="http://www.w3.org/1999/xlink" viewBox="0 0 460 460"><defs><style>.cls-1{fill:none;}.cls-2{fill:#49ba42;}.cls-3{fill:#fff;fill-rule:evenodd;}.cls-4{clip-path:url(#clip-path);}</style><clipPath id="clip-path"><rect class="cls-1" x="70.41" y="137.75" width="320" height="130.56"/></clipPath></defs><rect class="cls-2" width="460" height="460"/><path class="cls-3" d="M91.09,264H83V208.67h8.06V264ZM99,236v-.26c2.6-1.16,4.93-1.14,5.23-4.71.09-1,0-10.66,0-10.66s.48-8.3-2.34-11.57a11.25,11.25,0,0,0-4.84-3.14c-2.41-.76-9-.62-9-.62H70.46l0,62.5s24.44,0,26,0a8,8,0,0,0,7.72-5.64s.21-16.79.21-18.4c0-4.49-2-6.83-5.31-7.5Z"/><g class="cls-4"><path class="cls-3" d="M165.17,263.82h-8.06V208.54h8.06v55.28ZM178,212.08a11.59,11.59,0,0,0-11.14-6.91c-.23,0-9.09,0-12.53,0-1.67,0-9.56.22-10.53,7.28a70.47,70.47,0,0,0-.06,8.28v31.65c0,4.22,0,9.17,1.31,11.24,1.44,2.25,5.51,4.24,8.93,4.41,1.6.07,7.68.05,7.68.05s6.44.05,8.44-.05c3.63-.2,6-3.21,7.51-6.23,1.05-2,1.05-5.54,1.05-8.5-.05-1.05,0-31.22,0-34.92,0-2.32.11-4.67-.66-6.28Z"/><path class="cls-3" d="M310.67,222.05V208.54h-8.06v55.28h8.06V250.37h13.15s0,2.13,0,3.17c0,2.89-.05,5.49-.79,7.45-1.4,3.74-3.8,6.24-7.85,7.07-1.95.4-12.66.2-13.56.21-13,.14-12.28-11.66-12.28-11.66l0-38s-.26-5.73,1.44-8.49c1.54-2.49,2.5-3.88,7-4.57,1.5-.23,13.4-.86,17,.13a15.56,15.56,0,0,1,6.6,3.58c2.21,2.15,2.11,9.88,2.11,9.88V222l-12.86,0Z"/></g><polygon class="cls-3" points="365.2 205.27 365.2 267.86 390.41 267.86 390.41 264.09 379.44 264.09 379.44 238.24 390.22 238.24 390.22 233.63 379.44 233.63 379.44 209.56 390.22 209.56 390.22 205.27 365.2 205.27 365.2 205.27"/><polygon class="cls-3" points="258.59 141.93 202.28 141.93 202.28 137.75 258.59 137.75 258.59 141.93 258.59 141.93"/><polygon class="cls-3" points="283.62 148.75 167.9 148.75 167.9 144.57 283.62 144.57 283.62 148.75 283.62 148.75"/><polygon class="cls-3" points="289.63 155.93 178.3 155.93 178.3 151.75 289.63 151.75 289.63 155.93 289.63 155.93"/><polygon class="cls-3" points="303.13 163.58 157.21 163.58 157.21 159.4 303.13 159.4 303.13 163.58 303.13 163.58"/><polygon class="cls-3" points="313.52 171.17 157.41 171.17 157.41 166.99 313.52 166.99 313.52 171.17 313.52 171.17"/><polygon class="cls-3" points="297.16 178.76 164.94 178.76 164.94 174.59 297.16 174.59 297.16 178.76 297.16 178.76"/><polygon class="cls-3" points="310.86 186.17 152.48 186.17 152.48 182 310.86 182 310.86 186.17 310.86 186.17"/><polygon class="cls-3" points="303.14 194.36 163.03 194.36 163.03 189.41 303.14 189.41 303.14 194.36 303.14 194.36"/><path class="cls-3" d="M240.69,212h-9.93l-1.08-3.42h12l-1,3.42ZM236,224.73l-3.17-8.54h6L236,224.73Zm53.7-16.14v-4.17H248.6l.8-3.06h37.23v-4.18H178.3v4.18h65.91l-.94,3.06H195v4.17h19.35l1.14,3.42H191.1v4.17h26.53l6.78,16.8V268H238V232.22l5.9-16h27.3V212H245.82l1-3.42Z"/></svg>