<svg id="Layer_1" data-name="Layer 1" xmlns="http://www.w3.org/2000/svg" xmlns:xlink="http://www.w3.org/1999/xlink" viewBox="0 0 460 460"><defs><style>.cls-1,.cls-4{fill:none;}.cls-2{fill:#fff;}.cls-3{clip-path:url(#clip-path);}.cls-4{stroke:#292165;stroke-miterlimit:3.86;stroke-width:8.45px;}.cls-5,.cls-6,.cls-7,.cls-8{font-size:42.9px;fill:#4e5057;font-family:BauerBodoni-Roman, Bauer Bodoni;}.cls-5{letter-spacing:-0.05em;}.cls-6{letter-spacing:-0.02em;}.cls-7{letter-spacing:-0.05em;}.cls-8{letter-spacing:-0.05em;}</style><clipPath id="clip-path" transform="translate(0 0)"><rect class="cls-1" x="179.54" y="86" width="109.76" height="201.09"/></clipPath></defs><rect class="cls-2" width="460" height="460"/><path class="cls-2" d="M268.27,135.87V237.8l-50.92-38.12v47m.13-72.66V119.49l17-25.79,16.94,25.88v79.66l-50-37.23m51.75,1.58h35.92m-36.53-23.5h15.49m-67.51,0h15.31m-32.12,23.5h18.83m-1.8,78.83h17.16m-34.15-83V242l50.66,39.7L285.08,242V159.37m-84.41-23.5V246.64" transform="translate(0 0)"/><g class="cls-3"><path class="cls-4" d="M268.27,135.87V237.8l-50.92-38.12v47m.13-72.66V119.49l17-25.79,16.94,25.88v79.66l-50-37.23m51.75,1.58h35.92m-36.53-23.5h15.49m-67.51,0h15.31m-32.12,23.5h18.83m-1.8,78.83h17.16m-34.15-83V242l50.66,39.7L285.08,242V159.37m-84.41-23.5V246.64" transform="translate(0 0)"/></g><text class="cls-5" transform="translate(119.84 321.12)">Newp</text><text class="cls-6" transform="translate(215.33 321.12)">ort</text><text class="cls-7" transform="translate(263.47 321.12)"><tspan xml:space="preserve"> Ci</tspan></text><text class="cls-8" transform="translate(310.57 321.12)">ty</text></svg>