<?xml version="1.0" encoding="UTF-8"?><svg id="Layer_1" xmlns="http://www.w3.org/2000/svg" viewBox="0 0 460 460"><defs><style>.cls-1{fill:#fff;}.cls-2{fill:#ef4136;}.cls-3{fill:#231f20;}.cls-4{fill:none;stroke:#fff;stroke-width:1.86px;}</style></defs><rect class="cls-1" width="460" height="460"/><g><polygon class="cls-1" points="357.97 281.12 108.95 281.12 108.95 88.67 357.97 88.67 357.97 281.12 357.97 281.12"/><polygon class="cls-3" points="254.21 139.91 201.48 192.65 148.75 139.91 201.48 87.18 254.21 139.91 254.21 139.91"/><polygon class="cls-3" points="261.17 210.23 208.43 262.96 155.7 210.23 208.43 157.49 261.17 210.23 261.17 210.23"/><polygon class="cls-3" points="328.98 169.16 276.25 221.89 223.51 169.16 276.25 116.42 328.98 169.16 328.98 169.16"/><path class="cls-4" d="M262,162.98c0,21.84-17.71,39.55-39.55,39.55s-39.55-17.71-39.55-39.55,17.71-39.55,39.55-39.55,39.55,17.71,39.55,39.55h0Z"/><path class="cls-2" d="M134.24,288.37c0-7.65-4.74-11.31-9.1-11.31s-7.84,2.65-7.84,9.99,4.55,11.69,9.64,11.69c2.53,0,7.3-1.11,7.3-10.37h0Zm-3.51,11.13c-1.26,.47-3.29,.82-4.96,.82-9.26,0-12.86-6.86-12.86-12.55,0-5.15,3.7-12.23,12.96-12.23,7.55,0,12.8,4.58,12.8,11.98,0,5.56-3.51,9.07-5.5,10.4l6.35,3.26c6.67,3.41,10.87,3.76,13.02,3.76,1.64,0,3.98-.25,6.16-1.11,.19-.06,.35-.16,.47-.16,.16,0,.28,.13,.28,.28,0,.19-.16,.29-.38,.38-1.9,.92-5.47,2.37-10.02,2.37s-8.15-1.23-13.37-4.3l-4.96-2.91h0Z"/><path class="cls-2" d="M142.82,291.17c0-2.83,0-3.35-.04-3.94-.04-.63-.19-.93-.8-1.06-.15-.04-.47-.05-.73-.05-.2,0-.32-.04-.32-.17s.13-.17,.41-.17c.99,0,2.16,.06,2.72,.06,.45,0,1.62-.06,2.29-.06,.28,0,.41,.04,.41,.17s-.11,.17-.3,.17c-.2,0-.32,.02-.54,.05-.5,.09-.65,.41-.69,1.06-.04,.6-.04,1.12-.04,3.94v2.6c0,2.7,.54,3.83,1.45,4.58,.84,.69,1.69,.76,2.32,.76,.82,0,1.82-.26,2.57-1.01,1.02-1.02,1.08-2.7,1.08-4.61v-2.32c0-2.83,0-3.35-.04-3.94-.04-.63-.19-.93-.8-1.06-.15-.04-.46-.05-.67-.05s-.32-.04-.32-.17,.13-.17,.39-.17c.95,0,2.12,.06,2.14,.06,.22,0,1.39-.06,2.12-.06,.26,0,.39,.04,.39,.17s-.11,.17-.33,.17c-.2,0-.32,.02-.54,.05-.5,.09-.65,.41-.69,1.06-.04,.6-.04,1.12-.04,3.94v1.99c0,2.06-.2,4.26-1.77,5.6-1.32,1.14-2.66,1.34-3.87,1.34-.99,0-2.77-.06-4.13-1.28-.95-.86-1.66-2.23-1.66-4.93v-2.71h0Z"/><path class="cls-2" d="M159.46,291.17c0-2.83,0-3.35-.04-3.94-.04-.63-.22-.95-.63-1.04-.2-.06-.45-.07-.67-.07-.19,0-.3-.04-.3-.19,0-.11,.15-.15,.45-.15,.71,0,1.88,.06,2.42,.06,.46,0,1.56-.06,2.27-.06,.24,0,.39,.04,.39,.15,0,.15-.11,.19-.3,.19s-.34,.02-.56,.05c-.5,.09-.65,.41-.69,1.06-.04,.6-.04,1.12-.04,3.94v3.27c0,1.8,0,3.27,.07,4.07,.06,.5,.19,.84,.74,.91,.26,.04,.67,.07,.95,.07,.2,0,.3,.06,.3,.15,0,.13-.15,.19-.35,.19-1.23,0-2.4-.05-2.9-.05-.43,0-1.6,.05-2.34,.05-.24,0-.37-.05-.37-.19,0-.09,.07-.15,.3-.15,.28,0,.5-.04,.67-.07,.37-.07,.48-.39,.54-.93,.09-.78,.09-2.25,.09-4.05v-3.27h0Z"/><path class="cls-2" d="M168.91,297.3c.04,1.45,.28,1.93,.65,2.06,.32,.11,.67,.13,.97,.13,.2,0,.32,.04,.32,.15,0,.15-.17,.19-.43,.19-1.21,0-1.95-.05-2.31-.05-.17,0-1.04,.05-2.01,.05-.24,0-.41-.02-.41-.19,0-.11,.11-.15,.3-.15,.24,0,.58-.02,.84-.09,.48-.15,.56-.69,.58-2.31l.17-10.95c0-.37,.06-.63,.24-.63,.2,0,.37,.24,.69,.58,.22,.24,3.05,3.22,5.77,5.91,1.26,1.26,3.78,3.94,4.09,4.24h.09l-.19-8.35c-.02-1.13-.19-1.49-.63-1.67-.28-.11-.72-.11-.99-.11-.22,0-.3-.06-.3-.17,0-.15,.2-.17,.48-.17,.97,0,1.86,.06,2.25,.06,.2,0,.91-.06,1.82-.06,.24,0,.43,.02,.43,.17,0,.11-.11,.17-.33,.17-.19,0-.33,0-.56,.05-.52,.15-.67,.54-.69,1.58l-.2,11.73c0,.41-.07,.58-.24,.58-.2,0-.43-.2-.63-.41-1.17-1.12-3.55-3.55-5.49-5.47-2.03-2.01-4.09-4.28-4.43-4.63h-.06l.2,7.76h0Z"/><path class="cls-2" d="M187.95,286.81l-2.77,.07c-1.08,.04-1.52,.13-1.8,.54-.19,.28-.28,.5-.32,.65-.04,.15-.09,.22-.2,.22-.13,0-.17-.09-.17-.3,0-.3,.35-1.99,.39-2.14,.06-.24,.11-.35,.22-.35,.15,0,.33,.19,.8,.22,.54,.06,1.25,.09,1.86,.09h7.37c.6,0,1-.06,1.28-.09,.28-.05,.43-.09,.5-.09,.13,0,.15,.11,.15,.39,0,.39-.06,1.67-.06,2.16-.02,.19-.06,.3-.17,.3-.15,0-.19-.09-.2-.37l-.02-.2c-.04-.48-.54-1-2.19-1.04l-2.34-.06v7.63c0,1.71,0,3.18,.09,3.98,.06,.52,.17,.93,.72,1,.26,.04,.67,.07,.95,.07,.2,0,.3,.06,.3,.15,0,.13-.15,.19-.35,.19-1.23,0-2.4-.05-2.92-.05-.43,0-1.6,.05-2.34,.05-.24,0-.37-.05-.37-.19,0-.09,.07-.15,.3-.15,.28,0,.5-.04,.67-.07,.37-.07,.48-.48,.54-1.02,.09-.78,.09-2.25,.09-3.96v-7.63h0Z"/><path class="cls-2" d="M209,293.16c0-4.17-2.4-6.75-5.45-6.75-2.14,0-4.58,1.19-4.58,5.82,0,3.87,2.14,6.94,5.71,6.94,1.3,0,4.31-.63,4.31-6.01h0Zm-12.59-.35c0-3.18,2.1-7.29,7.68-7.29,4.63,0,7.51,2.7,7.51,6.96s-2.98,7.62-7.7,7.62c-5.34,0-7.5-4-7.5-7.29h0Z"/><path class="cls-2" d="M216.53,297.3c.04,1.45,.28,1.93,.65,2.06,.32,.11,.67,.13,.97,.13,.2,0,.32,.04,.32,.15,0,.15-.17,.19-.43,.19-1.21,0-1.95-.05-2.31-.05-.17,0-1.04,.05-2.01,.05-.24,0-.41-.02-.41-.19,0-.11,.11-.15,.3-.15,.24,0,.58-.02,.84-.09,.48-.15,.56-.69,.58-2.31l.17-10.95c0-.37,.06-.63,.24-.63,.2,0,.37,.24,.69,.58,.22,.24,3.05,3.22,5.77,5.91,1.27,1.26,3.78,3.94,4.09,4.24h.09l-.19-8.35c-.02-1.13-.19-1.49-.63-1.67-.28-.11-.73-.11-.99-.11-.22,0-.3-.06-.3-.17,0-.15,.2-.17,.48-.17,.97,0,1.86,.06,2.25,.06,.21,0,.91-.06,1.82-.06,.24,0,.43,.02,.43,.17,0,.11-.11,.17-.33,.17-.19,0-.33,0-.56,.05-.52,.15-.67,.54-.69,1.58l-.21,11.73c0,.41-.07,.58-.24,.58-.21,0-.43-.2-.63-.41-1.17-1.12-3.55-3.55-5.49-5.47-2.03-2.01-4.09-4.28-4.43-4.63h-.06l.2,7.76h0Z"/><path class="cls-2" d="M249.96,298.59c0,.5-.02,.54-.24,.67-1.21,.63-3.03,.84-4.48,.84-4.56,0-8.59-2.16-8.59-7.29,0-2.98,1.54-5.06,3.24-6.08,1.79-1.08,3.44-1.21,5-1.21,1.28,0,2.92,.22,3.29,.3,.39,.08,1.04,.19,1.47,.21,.22,.02,.26,.09,.26,.22,0,.21-.13,.73-.13,3.05,0,.3-.05,.39-.2,.39-.13,0-.17-.09-.19-.24-.06-.43-.15-1.02-.63-1.54-.56-.6-2.05-1.45-4.15-1.45-1.02,0-2.38,.07-3.68,1.15-1.04,.87-1.71,2.27-1.71,4.56,0,4,2.55,6.99,6.47,6.99,.48,0,1.13,0,1.58-.2,.28-.13,.35-.37,.35-.69v-1.75c0-.93,0-1.64-.02-2.19-.02-.63-.19-.93-.8-1.06-.15-.04-.46-.05-.73-.05-.17,0-.28-.04-.28-.15,0-.15,.13-.19,.39-.19,.97,0,2.14,.05,2.7,.05s1.56-.05,2.18-.05c.24,0,.37,.04,.37,.19,0,.11-.11,.15-.24,.15-.15,0-.28,.02-.5,.05-.5,.09-.69,.41-.71,1.06-.02,.56-.02,1.3-.02,2.23v2.05h0Z"/><path class="cls-2" d="M257.34,292.64c0,.2,.04,.28,.17,.34,.39,.13,.95,.19,1.41,.19,.74,0,.99-.07,1.32-.32,.56-.41,1.1-1.26,1.1-2.79,0-2.64-1.75-3.4-2.85-3.4-.46,0-.8,.02-.99,.07-.13,.04-.17,.11-.17,.26v5.65h0Zm-2.2-1.47c0-2.83,0-3.35-.04-3.94-.04-.63-.19-.93-.8-1.06-.15-.04-.46-.05-.73-.05-.21,0-.32-.04-.32-.17s.13-.17,.41-.17c.99,0,2.16,.06,2.55,.06,.63,0,2.05-.06,2.62-.06,1.17,0,2.42,.11,3.42,.8,.52,.35,1.26,1.3,1.26,2.55,0,1.38-.58,2.64-2.46,4.17,1.66,2.08,2.94,3.74,4.04,4.89,1.04,1.08,1.8,1.21,2.08,1.27,.21,.04,.37,.06,.52,.06s.22,.06,.22,.15c0,.15-.13,.19-.35,.19h-1.77c-1.04,0-1.51-.09-1.99-.35-.8-.43-1.51-1.3-2.55-2.73-.74-1.02-1.6-2.29-1.84-2.57-.09-.11-.2-.13-.33-.13l-1.62-.04c-.09,0-.15,.04-.15,.15v.26c0,1.73,0,3.2,.09,3.98,.05,.54,.17,.95,.73,1.02,.28,.04,.69,.07,.91,.07,.15,0,.22,.06,.22,.15,0,.13-.13,.19-.37,.19-1.08,0-2.46-.05-2.73-.05-.35,0-1.53,.05-2.27,.05-.24,0-.37-.05-.37-.19,0-.09,.07-.15,.3-.15,.28,0,.5-.04,.67-.07,.37-.07,.46-.48,.54-1.02,.09-.78,.09-2.25,.09-3.96v-3.27h0Z"/><path class="cls-2" d="M279.65,293.16c0-4.17-2.4-6.75-5.45-6.75-2.14,0-4.58,1.19-4.58,5.82,0,3.87,2.14,6.94,5.71,6.94,1.3,0,4.32-.63,4.32-6.01h0Zm-12.59-.35c0-3.18,2.1-7.29,7.68-7.29,4.63,0,7.51,2.7,7.51,6.96s-2.98,7.62-7.7,7.62c-5.34,0-7.49-4-7.49-7.29h0Z"/><path class="cls-2" d="M285.53,291.17c0-2.83,0-3.35-.04-3.94-.04-.63-.19-.93-.8-1.06-.15-.04-.46-.05-.73-.05-.2,0-.32-.04-.32-.17s.13-.17,.41-.17c.99,0,2.16,.06,2.72,.06,.45,0,1.62-.06,2.29-.06,.28,0,.41,.04,.41,.17s-.11,.17-.3,.17c-.21,0-.32,.02-.54,.05-.5,.09-.65,.41-.69,1.06-.04,.6-.04,1.12-.04,3.94v2.6c0,2.7,.54,3.83,1.45,4.58,.84,.69,1.69,.76,2.33,.76,.82,0,1.82-.26,2.57-1.01,1.02-1.02,1.08-2.7,1.08-4.61v-2.32c0-2.83,0-3.35-.04-3.94-.04-.63-.19-.93-.8-1.06-.15-.04-.46-.05-.67-.05s-.32-.04-.32-.17,.13-.17,.39-.17c.95,0,2.12,.06,2.14,.06,.22,0,1.4-.06,2.12-.06,.26,0,.39,.04,.39,.17s-.11,.17-.33,.17c-.2,0-.32,.02-.54,.05-.5,.09-.65,.41-.69,1.06-.04,.6-.04,1.12-.04,3.94v1.99c0,2.06-.2,4.26-1.77,5.6-1.32,1.14-2.66,1.34-3.87,1.34-.99,0-2.77-.06-4.13-1.28-.95-.86-1.66-2.23-1.66-4.93v-2.71h0Z"/><path class="cls-2" d="M302.17,291.17c0-2.83,0-3.35-.04-3.94-.04-.63-.19-.93-.8-1.06-.15-.04-.46-.05-.73-.05-.21,0-.32-.04-.32-.17s.13-.17,.41-.17c.99,0,2.16,.06,2.68,.06,.76,0,1.84-.06,2.7-.06,2.33,0,3.16,.78,3.46,1.06,.41,.39,.93,1.23,.93,2.21,0,2.64-1.93,4.5-4.58,4.5-.09,0-.3,0-.39-.02-.09-.02-.22-.04-.22-.17,0-.15,.13-.2,.52-.2,1.04,0,2.49-1.17,2.49-3.07,0-.61-.06-1.86-1.1-2.79-.67-.61-1.43-.73-1.86-.73-.28,0-.56,.02-.73,.07-.09,.04-.15,.15-.15,.35v7.44c0,1.71,0,3.18,.09,3.98,.06,.52,.17,.93,.73,1,.26,.04,.67,.07,.95,.07,.2,0,.3,.06,.3,.15,0,.13-.15,.19-.35,.19-1.23,0-2.4-.05-2.88-.05-.43,0-1.6,.05-2.34,.05-.24,0-.37-.05-.37-.19,0-.09,.07-.15,.3-.15,.28,0,.5-.04,.67-.07,.37-.07,.46-.48,.54-1.02,.09-.78,.09-2.25,.09-3.96v-3.27h0Z"/><path class="cls-2" d="M322.25,294.44c0,2.38,0,3.66,.39,4,.32,.28,.8,.41,2.25,.41,.99,0,1.71-.02,2.18-.52,.22-.24,.45-.76,.48-1.12,.02-.17,.06-.28,.2-.28,.13,0,.15,.09,.15,.32,0,.2-.13,1.6-.28,2.14-.11,.41-.2,.5-1.17,.5-1.34,0-2.31-.04-3.14-.06-.84-.04-1.51-.05-2.27-.05-.2,0-.61,0-1.06,.02-.43,0-.91,.04-1.28,.04-.24,0-.37-.05-.37-.19,0-.09,.07-.15,.3-.15,.28,0,.5-.04,.67-.07,.37-.07,.46-.48,.54-1.02,.09-.78,.09-2.25,.09-3.96v-3.27c0-2.83,0-3.35-.04-3.94-.04-.63-.19-.93-.8-1.06-.15-.04-.37-.05-.61-.05-.21,0-.32-.04-.32-.17s.13-.17,.41-.17c.87,0,2.05,.06,2.55,.06,.45,0,1.8-.06,2.53-.06,.26,0,.39,.04,.39,.17s-.11,.17-.33,.17c-.21,0-.5,.02-.73,.05-.5,.09-.65,.41-.69,1.06-.04,.6-.04,1.12-.04,3.94v3.27h0Z"/><path class="cls-2" d="M332.76,286.81l-2.77,.07c-1.08,.04-1.53,.13-1.8,.54-.19,.28-.28,.5-.32,.65-.04,.15-.09,.22-.2,.22-.13,0-.17-.09-.17-.3,0-.3,.35-1.99,.39-2.14,.05-.24,.11-.35,.22-.35,.15,0,.33,.19,.8,.22,.54,.06,1.25,.09,1.86,.09h7.37c.59,0,1-.06,1.28-.09,.28-.05,.43-.09,.5-.09,.13,0,.15,.11,.15,.39,0,.39-.05,1.67-.05,2.16-.02,.19-.06,.3-.17,.3-.15,0-.19-.09-.2-.37l-.02-.2c-.04-.48-.54-1-2.2-1.04l-2.34-.06v7.63c0,1.71,0,3.18,.09,3.98,.05,.52,.17,.93,.73,1,.26,.04,.67,.07,.95,.07,.21,0,.3,.06,.3,.15,0,.13-.15,.19-.35,.19-1.23,0-2.4-.05-2.92-.05-.43,0-1.6,.05-2.34,.05-.24,0-.37-.05-.37-.19,0-.09,.07-.15,.3-.15,.28,0,.5-.04,.67-.07,.37-.07,.48-.48,.54-1.02,.09-.78,.09-2.25,.09-3.96v-7.63h0Z"/><path class="cls-2" d="M345.81,293.21c0,1.97,.02,3.4,.04,3.76,.02,.46,.06,1.21,.2,1.41,.24,.35,.97,.74,2.44,.74,1.9,0,3.16-.37,4.28-1.34,1.19-1.02,1.56-2.72,1.56-4.63,0-2.36-.99-3.89-1.79-4.65-1.71-1.64-3.83-1.86-5.28-1.86-.37,0-1.06,.05-1.21,.13-.17,.07-.22,.17-.22,.37-.02,.63-.02,2.25-.02,3.72v2.34h0Zm-2.33-2.05c0-2.83,0-3.35-.04-3.94-.04-.63-.18-.93-.8-1.06-.15-.04-.46-.05-.73-.05-.2,0-.32-.04-.32-.17s.13-.17,.41-.17c.99,0,2.16,.06,2.68,.06,.58,0,1.75-.06,2.86-.06,2.32,0,5.43,0,7.46,2.12,.93,.97,1.8,2.51,1.8,4.72,0,2.34-.99,4.13-2.03,5.19-.86,.87-2.79,2.19-6.23,2.19-.67,0-1.43-.06-2.14-.11-.71-.06-1.36-.11-1.82-.11-.2,0-.61,0-1.06,.02-.43,0-.91,.04-1.28,.04-.24,0-.37-.05-.37-.19,0-.09,.07-.15,.3-.15,.28,0,.5-.04,.67-.07,.37-.07,.46-.48,.54-1.02,.09-.78,.09-2.25,.09-3.96v-3.27h0Z"/></g></svg>