<svg id="Layer_1" data-name="Layer 1" xmlns="http://www.w3.org/2000/svg" viewBox="0 0 460 460"><defs><style>.cls-1{fill:#fff;}.cls-2{fill:#231f20;}.cls-3{fill:none;stroke:#fff;stroke-width:1.84px;}.cls-4{font-size:31.29px;}.cls-4,.cls-5,.cls-6,.cls-7{fill:#ef4136;font-family:TrajanPro-Bold, Trajan Pro;font-weight:700;}.cls-5,.cls-6,.cls-7{font-size:18.4px;}.cls-6{letter-spacing:0em;}.cls-7{letter-spacing:-0.05em;}</style></defs><rect class="cls-1" width="460" height="460"/><polygon class="cls-1" points="355.33 281.95 108.86 281.95 108.86 91.48 355.33 91.48 355.33 281.95 355.33 281.95"/><polygon class="cls-2" points="252.64 142.19 200.44 194.39 148.25 142.19 200.44 90 252.64 142.19 252.64 142.19"/><polygon class="cls-2" points="259.51 211.79 207.32 263.98 155.13 211.79 207.32 159.59 259.51 211.79 259.51 211.79"/><polygon class="cls-2" points="326.64 171.14 274.44 223.33 222.25 171.14 274.44 118.95 326.64 171.14 326.64 171.14"/><path class="cls-3" d="M260.34,165a39.15,39.15,0,1,1-39.14-39.14A39.15,39.15,0,0,1,260.34,165Z"/><text class="cls-4" transform="translate(111.06 300.42)">Q</text><text class="cls-5" transform="translate(140.15 300.42)">UINT</text><text class="cls-6" transform="translate(194.41 300.42)">ON GROUP </text><text class="cls-7" transform="translate(314.66 300.42)">LT</text><text class="cls-5" transform="translate(337.97 300.42)">D</text></svg>