<svg id="Layer_1" data-name="Layer 1" xmlns="http://www.w3.org/2000/svg" xmlns:xlink="http://www.w3.org/1999/xlink" viewBox="0 0 460 460"><defs><style>.cls-1{fill:none;}.cls-2{clip-path:url(#clip-path);}.cls-3{fill:#faa51a;}.cls-4{fill:#231f20;}.cls-5{fill:#fff;}</style><clipPath id="clip-path"><rect class="cls-1" x="0.05" y="0.05" width="459.95" height="459.95"/></clipPath></defs><g class="cls-2"><polygon class="cls-3" points="460 460 0 460 0 0 460 0 460 460 460 460"/></g><polygon class="cls-4" points="193.06 119.88 234.47 149.01 234.47 195.85 193.06 166.61 193.06 119.88 193.06 119.88"/><path class="cls-4" d="M272.61,155.21V121l9.67-6.41v52.93l-36.84,26.2s1.16-30,27.17-38.48Z"/><path class="cls-4" d="M239.46,197.69l1-.66s-.15-35.69,26.93-45.19V113s-21.57,5.06-27.91,33.13v51.53Z"/><polygon class="cls-5" points="116.78 220.67 119.13 220.67 119.13 207.35 116.78 207.35 116.78 204.63 124.75 204.63 131.98 218.57 132.04 218.57 132.04 207.35 129.69 207.35 129.69 204.63 137.98 204.63 137.98 207.35 135.63 207.35 135.63 223.4 130.41 223.4 122.77 208.9 122.72 208.9 122.72 220.67 125.07 220.67 125.07 223.4 116.78 223.4 116.78 220.67 116.78 220.67"/><path class="cls-5" d="M146.91,217.25c-1.95,0-3.7.32-3.7,2.13,0,1.26.86,1.83,2,1.83,2.27,0,3.56-1.66,3.5-4Zm1.89,4.19h-.06a4.58,4.58,0,0,1-4.44,2.36c-2.5,0-4.68-1.44-4.68-4.31,0-4.42,4.42-4.53,7.78-4.53h1.34v-1c0-1.58-1.17-2.07-2.58-2.07s-2.41.63-2.52,2.18h-3.59c.23-3.85,3.39-4.48,6.54-4.48,4.34,0,5.74,1.81,5.74,5.89v5.36h1.72v2.58H148.8v-1.95Z"/><path class="cls-5" d="M164.36,212.55h-3.59V219c0,1,0,2,1.12,2s1.15-1.38,1.15-2h2.29c.12,3.07-1,4.71-4.21,4.71A3.92,3.92,0,0,1,157,220v-7.4H154.8V210H157v-2.62l3.81-1.34v4h3.59v2.58Z"/><path class="cls-5" d="M172.37,208h-4v-3.81h4V208Zm-5.69,12.77h1.87v-8.26h-1.87V210h5.69v10.84h1.86v2.58h-7.55v-2.58Z"/><path class="cls-5" d="M183.21,221.07c2.44,0,3.22-2.27,3.22-4.39s-.78-4.39-3.22-4.39-3.21,2.27-3.21,4.39.77,4.39,3.21,4.39Zm7.18-4.39c0,4.48-3,7.12-7.18,7.12s-7.17-2.64-7.17-7.12,3-7.12,7.17-7.12,7.18,2.64,7.18,7.12Z"/><path class="cls-5" d="M192.49,220.81h1.86v-8.26h-1.86V210h5.33v2.26h.06a5.05,5.05,0,0,1,4.56-2.67c3.56,0,4.79,1.9,4.79,5.28v6h1.87v2.58h-7.4v-2.58h1.72V215a2.45,2.45,0,0,0-2.35-2.7c-2.07,0-2.9,1.89-2.9,3.61v4.91h1.72v2.58h-7.4v-2.58Z"/><path class="cls-5" d="M218.72,217.25c-1.95,0-3.71.32-3.71,2.13,0,1.26.87,1.83,2,1.83,2.27,0,3.56-1.66,3.5-4Zm1.89,4.19h-.06a4.58,4.58,0,0,1-4.44,2.36c-2.5,0-4.68-1.44-4.68-4.31,0-4.42,4.42-4.53,7.77-4.53h1.35v-1c0-1.58-1.17-2.07-2.58-2.07s-2.41.63-2.52,2.18h-3.59c.23-3.85,3.38-4.48,6.54-4.48,4.33,0,5.74,1.81,5.74,5.89v5.36h1.72v2.58h-5.25v-1.95Z"/><polygon class="cls-5" points="227.33 220.81 229.19 220.81 229.19 206.81 227.33 206.81 227.33 204.23 233.01 204.23 233.01 220.81 234.88 220.81 234.88 223.4 227.33 223.4 227.33 220.81 227.33 220.81"/><path class="cls-5" d="M174.37,246.5H177c2.43,0,4.1-.4,4.1-2.93,0-2.7-2.07-2.7-4.08-2.7h-2.67v5.63Zm0-8.21h2.27c1.9,0,3.9-.37,3.9-2.69s-2-2.42-3.78-2.42h-2.39v5.11Zm-6.31,8.21h2.36V233.18h-2.36v-2.72h9c3.42,0,7.43.09,7.43,4.59,0,2.5-1.29,4-3.84,4.28v0a4.42,4.42,0,0,1,4.42,4.36c0,5.66-5.22,5.48-8.18,5.48h-8.84V246.5Z"/><path class="cls-5" d="M194.38,246.9c2.44,0,3.21-2.27,3.21-4.39s-.77-4.39-3.21-4.39-3.22,2.27-3.22,4.39.78,4.39,3.22,4.39Zm7.17-4.39c0,4.48-3,7.12-7.17,7.12s-7.17-2.64-7.17-7.12,2.95-7.12,7.17-7.12,7.17,2.64,7.17,7.12Z"/><path class="cls-5" d="M210.34,246.9c2.44,0,3.21-2.27,3.21-4.39s-.77-4.39-3.21-4.39-3.22,2.27-3.22,4.39.78,4.39,3.22,4.39Zm7.17-4.39c0,4.48-3,7.12-7.17,7.12s-7.18-2.64-7.18-7.12,3-7.12,7.18-7.12,7.17,2.64,7.17,7.12Z"/><polygon class="cls-5" points="219 246.64 220.87 246.64 220.87 232.64 219 232.64 219 230.06 224.69 230.06 224.69 241.51 228.65 238.44 228.65 238.38 226.84 238.38 226.84 235.8 234.44 235.8 234.44 238.38 233.01 238.38 229.77 240.79 233.61 246.64 235.19 246.64 235.19 249.22 227.9 249.22 227.9 246.64 229.48 246.64 227.1 242.94 224.69 244.83 224.69 246.64 226.26 246.64 226.26 249.22 219 249.22 219 246.64 219 246.64"/><polygon class="cls-5" points="95.45 256.29 95.45 262.57 92.15 262.57 92.15 259.01 84.72 259.01 84.72 264.5 87.36 264.5 87.36 262 90.37 262 90.37 269.66 87.36 269.66 87.36 267.08 84.72 267.08 84.72 272.33 87.5 272.33 87.5 275.06 78.4 275.06 78.4 272.33 80.76 272.33 80.76 259.01 78.4 259.01 78.4 256.29 95.45 256.29 95.45 256.29"/><path class="cls-5" d="M101.85,272.73c2.44,0,3.21-2.27,3.21-4.39s-.77-4.39-3.21-4.39-3.21,2.27-3.21,4.39.77,4.39,3.21,4.39Zm7.17-4.39c0,4.48-3,7.12-7.17,7.12s-7.17-2.64-7.17-7.12,2.95-7.12,7.17-7.12,7.17,2.64,7.17,7.12Z"/><path class="cls-5" d="M125,272.47h1.86v2.58h-5.33v-2.26h-.06a5.05,5.05,0,0,1-4.56,2.67c-3.56,0-4.8-1.9-4.8-5.28v-6h-1.86v-2.58H116V270a2.45,2.45,0,0,0,2.35,2.7c2.07,0,2.9-1.89,2.9-3.61v-4.91H119.5v-2.58H125v10.84Z"/><path class="cls-5" d="M128.66,272.47h1.86v-8.26h-1.86v-2.58H134v2.26h.06a5.05,5.05,0,0,1,4.56-2.67c3.56,0,4.8,1.9,4.8,5.28v6h1.86v2.58h-7.4v-2.58h1.72v-5.82a2.45,2.45,0,0,0-2.35-2.7c-2.07,0-2.9,1.89-2.9,3.62v4.9h1.72v2.58h-7.4v-2.58Z"/><path class="cls-5" d="M157.81,268.14c0-2.21-1-4.19-3.32-4.19s-3.19,2.18-3.19,4.39c0,2.9,1.21,4.39,2.84,4.39,2.87,0,3.67-1.75,3.67-4.59Zm3.59,4.33h1.87v2.58H158v-2.23h-.06a4.85,4.85,0,0,1-4.76,2.64c-3.91,0-5.8-3.3-5.8-6.92,0-4.93,2.53-7.32,6-7.32a4.27,4.27,0,0,1,4.16,2.39h.05v-5.14h-1.86v-2.58h5.68v16.58Z"/><path class="cls-5" d="M172.42,268.91c-1.95,0-3.7.32-3.7,2.13,0,1.26.86,1.83,2,1.83,2.27,0,3.56-1.66,3.5-4Zm1.9,4.19h-.06a4.6,4.6,0,0,1-4.45,2.36c-2.49,0-4.67-1.44-4.67-4.31,0-4.42,4.41-4.53,7.77-4.53h1.35v-1c0-1.58-1.18-2.07-2.58-2.07s-2.41.63-2.53,2.18h-3.58c.23-3.84,3.38-4.48,6.54-4.48,4.33,0,5.74,1.81,5.74,5.89v5.36h1.72v2.58h-5.25V273.1Z"/><path class="cls-5" d="M189.87,264.21h-3.58v6.48c0,1,0,2,1.12,2s1.14-1.38,1.14-2h2.3c.11,3.07-1,4.71-4.22,4.71a3.93,3.93,0,0,1-4.16-3.85v-7.4h-2.15v-2.58h2.15V259l3.82-1.34v4h3.58v2.58Z"/><path class="cls-5" d="M197.88,259.7h-4v-3.81h4v3.81Zm-5.68,12.77h1.86v-8.26H192.2v-2.58h5.68v10.84h1.87v2.58H192.2v-2.58Z"/><path class="cls-5" d="M208.73,272.73c2.44,0,3.21-2.27,3.21-4.39s-.77-4.39-3.21-4.39-3.21,2.27-3.21,4.39.77,4.39,3.21,4.39Zm7.17-4.39c0,4.48-3,7.12-7.17,7.12s-7.17-2.64-7.17-7.12,2.95-7.12,7.17-7.12,7.17,2.64,7.17,7.12Z"/><path class="cls-5" d="M218,272.47h1.87v-8.26H218v-2.58h5.34v2.26h.06a5,5,0,0,1,4.56-2.67c3.56,0,4.79,1.9,4.79,5.28v6h1.86v2.58h-7.4v-2.58h1.72v-5.82a2.45,2.45,0,0,0-2.35-2.7c-2.07,0-2.9,1.89-2.9,3.62v4.9h1.72v2.58H218v-2.58Z"/><polygon class="cls-4" points="243.85 220.67 246.2 220.67 246.2 207.36 243.85 207.36 243.85 204.63 251.83 204.63 259.06 218.58 259.11 218.58 259.11 207.36 256.76 207.36 256.76 204.63 265.05 204.63 265.05 207.36 262.7 207.36 262.7 223.4 257.48 223.4 249.85 208.91 249.79 208.91 249.79 220.67 252.14 220.67 252.14 223.4 243.85 223.4 243.85 220.67 243.85 220.67"/><path class="cls-4" d="M274,217.25c-2,0-3.7.32-3.7,2.13,0,1.26.86,1.84,2,1.84,2.26,0,3.56-1.67,3.5-4Zm1.9,4.2h-.06a4.61,4.61,0,0,1-4.45,2.35c-2.5,0-4.68-1.44-4.68-4.31,0-4.42,4.42-4.53,7.78-4.53h1.35v-1c0-1.58-1.18-2.07-2.58-2.07s-2.41.63-2.53,2.18h-3.59c.23-3.84,3.39-4.47,6.55-4.47,4.33,0,5.74,1.8,5.74,5.88v5.36h1.72v2.59h-5.25v-2Z"/><path class="cls-4" d="M291.43,212.55h-3.58V219c0,1,0,2,1.11,2s1.15-1.38,1.15-2h2.3c.11,3.07-1,4.71-4.22,4.71A3.93,3.93,0,0,1,284,220v-7.4h-2.15V210H284v-2.61l3.82-1.35v4h3.58v2.58Z"/><path class="cls-4" d="M299.44,208h-4v-3.81h4V208Zm-5.68,12.77h1.86v-8.26h-1.86V210h5.68v10.84h1.86v2.59h-7.54v-2.59Z"/><path class="cls-4" d="M310.29,221.07c2.44,0,3.21-2.26,3.21-4.39s-.77-4.39-3.21-4.39-3.22,2.27-3.22,4.39.78,4.39,3.22,4.39Zm7.17-4.39c0,4.48-2.95,7.12-7.17,7.12s-7.18-2.64-7.18-7.12,3-7.11,7.18-7.11,7.17,2.64,7.17,7.11Z"/><path class="cls-4" d="M319.56,220.81h1.86v-8.26h-1.86V210h5.34v2.26H325a5,5,0,0,1,4.57-2.66c3.55,0,4.79,1.89,4.79,5.28v6h1.86v2.59h-7.4v-2.59h1.72V215a2.45,2.45,0,0,0-2.35-2.7c-2.07,0-2.9,1.89-2.9,3.62v4.9H327v2.59h-7.4v-2.59Z"/><path class="cls-4" d="M345.79,217.25c-2,0-3.7.32-3.7,2.13,0,1.26.86,1.84,2,1.84,2.26,0,3.55-1.67,3.5-4Zm1.89,4.2h-.05a4.61,4.61,0,0,1-4.45,2.35c-2.5,0-4.68-1.44-4.68-4.31,0-4.42,4.42-4.53,7.78-4.53h1.35v-1c0-1.58-1.18-2.07-2.59-2.07s-2.41.63-2.52,2.18h-3.59c.23-3.84,3.39-4.47,6.54-4.47,4.34,0,5.74,1.8,5.74,5.88v5.36h1.72v2.59h-5.25v-2Z"/><polygon class="cls-4" points="354.4 220.81 356.27 220.81 356.27 206.81 354.4 206.81 354.4 204.23 360.08 204.23 360.08 220.81 361.95 220.81 361.95 223.4 354.4 223.4 354.4 220.81 354.4 220.81"/><path class="cls-4" d="M250.39,246.5H253c2.44,0,4.1-.4,4.1-2.93,0-2.69-2.06-2.69-4.07-2.69h-2.67v5.62Zm0-8.21h2.27c1.89,0,3.9-.37,3.9-2.69s-2-2.41-3.79-2.41h-2.38v5.1Zm-6.31,8.21h2.35V233.19h-2.35v-2.73h9c3.41,0,7.43.09,7.43,4.59,0,2.5-1.29,4-3.84,4.28v0a4.41,4.41,0,0,1,4.41,4.37c0,5.65-5.22,5.48-8.17,5.48h-8.84V246.5Z"/><path class="cls-4" d="M270.4,246.9c2.43,0,3.21-2.26,3.21-4.39s-.78-4.39-3.21-4.39-3.22,2.27-3.22,4.39.78,4.39,3.22,4.39Zm7.17-4.39c0,4.48-3,7.12-7.17,7.12s-7.18-2.64-7.18-7.12,3-7.11,7.18-7.11,7.17,2.64,7.17,7.11Z"/><path class="cls-4" d="M286.35,246.9c2.44,0,3.22-2.26,3.22-4.39s-.78-4.39-3.22-4.39-3.21,2.27-3.21,4.39.77,4.39,3.21,4.39Zm7.18-4.39c0,4.48-3,7.12-7.18,7.12s-7.17-2.64-7.17-7.12,2.95-7.11,7.17-7.11,7.18,2.64,7.18,7.11Z"/><polygon class="cls-4" points="295.02 246.64 296.89 246.64 296.89 232.64 295.02 232.64 295.02 230.06 300.7 230.06 300.7 241.51 304.66 238.44 304.66 238.38 302.86 238.38 302.86 235.8 310.46 235.8 310.46 238.38 309.02 238.38 305.78 240.79 309.63 246.64 311.2 246.64 311.2 249.23 303.92 249.23 303.92 246.64 305.5 246.64 303.11 242.94 300.7 244.84 300.7 246.64 302.28 246.64 302.28 249.23 295.02 249.23 295.02 246.64 295.02 246.64"/><path class="cls-4" d="M257.08,266.59l-2.81-7.2-2.87,7.2Zm-13.26,5.74h1.58l6.63-16h4.87l6.58,16h1.57v2.73H257v-2.73h2.35l-1.23-3h-7.78l-1.17,3h2.35v2.73h-7.69v-2.73Z"/><polygon class="cls-4" points="289.13 264.21 287.84 264.21 284.48 275.06 279.46 275.06 276.82 264.3 276.77 264.3 274.01 275.06 268.99 275.06 265.72 264.21 264.43 264.21 264.43 261.63 271.43 261.63 271.43 264.21 269.56 264.21 271.6 272.04 271.66 272.04 274.3 261.63 279.61 261.63 282.25 272.04 282.3 272.04 284.34 264.21 282.48 264.21 282.48 261.63 289.13 261.63 289.13 264.21 289.13 264.21"/><path class="cls-4" d="M297.89,268.92c-1.95,0-3.7.31-3.7,2.12,0,1.26.86,1.84,2,1.84,2.26,0,3.55-1.67,3.5-4Zm1.89,4.19h0a4.61,4.61,0,0,1-4.45,2.35c-2.5,0-4.68-1.44-4.68-4.31,0-4.41,4.42-4.53,7.78-4.53h1.35v-1c0-1.58-1.18-2.07-2.59-2.07s-2.41.63-2.52,2.18H291c.23-3.84,3.39-4.47,6.54-4.47,4.34,0,5.74,1.8,5.74,5.88v5.36H305v2.59h-5.25v-1.95Z"/><path class="cls-4" d="M306.79,272.47h1.86v-8.26h-1.86v-2.58h5.42v2.61h.06a4.57,4.57,0,0,1,4.13-3,7.42,7.42,0,0,1,1.64.17v3.13a6.6,6.6,0,0,0-1.72-.15c-2.53,0-3.71,1.87-3.85,4.19v3.9h2.3v2.59h-8v-2.59Z"/><path class="cls-4" d="M329.52,268.14c0-2.21-1-4.19-3.33-4.19s-3.19,2.18-3.19,4.39c0,2.9,1.21,4.39,2.84,4.39,2.87,0,3.68-1.75,3.68-4.59Zm3.58,4.33H335v2.59h-5.31v-2.24h-.06a4.85,4.85,0,0,1-4.76,2.64c-3.9,0-5.8-3.3-5.8-6.92,0-4.93,2.53-7.31,6-7.31a4.27,4.27,0,0,1,4.16,2.38h.06v-5.14h-1.87v-2.58h5.68v16.58Z"/><path class="cls-4" d="M337.13,270.32h3a2.58,2.58,0,0,0,2.87,2.56c.83,0,2-.29,2-1.55,0-2.82-7.95,0-7.95-6,0-2.81,2.38-4.13,4.82-4.13a3.85,3.85,0,0,1,3.61,1.8h.06v-1.4h2.87v4.44h-3a2.17,2.17,0,0,0-2.47-2.26c-.77,0-2.07.17-2.07,1.43,0,2.73,7.95,0,7.95,5.91,0,2.39-1.89,4.31-4.79,4.31a4.51,4.51,0,0,1-4-1.84H340v1.44h-2.86v-4.74Z"/></svg>