<?xml version="1.0" encoding="UTF-8"?><svg id="Layer_1" xmlns="http://www.w3.org/2000/svg" viewBox="0 0 155.08 63.4"><defs><style>.cls-1{fill:#fa4303;}.cls-2{fill:#0097d1;}.cls-3{fill:#ef4823;}</style></defs><g><path class="cls-1" d="M75.08,5.61h2.24c.62,0,1.11,.49,1.11,1.11v9.78c0,.62-.49,1.11-1.11,1.11h-2.24V5.61Zm1.1,11.04h1.14V6.57h-1.14v10.08Z"/><path class="cls-1" d="M91.96,16.65h1.64v.96h-2.75V5.61h2.75v.96h-1.64v4.56h1.4v.96h-1.4v4.56Z"/><path class="cls-1" d="M108.09,5.61h1.11l-1.34,5.87,1.4,6.14h-1.1l-1.24-5.69v5.69h-1.1V5.61h1.1v5.4l1.17-5.4Z"/><path class="cls-1" d="M123.46,5.61h1.11l-1.34,5.87,1.4,6.14h-1.1l-1.24-5.69v5.69h-1.1V5.61h1.1v5.4l1.17-5.4Z"/><path class="cls-1" d="M137.66,16.65h1.64v.96h-2.75V5.61h2.75v.96h-1.64v4.56h1.4v.96h-1.4v4.56Z"/><path class="cls-1" d="M151.53,5.61h2.25c.6,0,1.1,.49,1.1,1.11v4.29c0,.54-.38,.99-.88,1.1l1.1,5.51h-1.11l-1.01-5.49h-.33v5.49h-1.11V5.61Zm1.11,5.55h1.14V6.57h-1.14v4.59Z"/></g><g><path class="cls-1" d="M75.08,24.62h2.25c.61,0,1.11,.5,1.11,1.11v4.11c0,.24-.07,.59-.51,.76,.44,.2,.51,.54,.51,.78v4.11c0,.62-.5,1.11-1.11,1.13h-2.25v-12Zm1.11,5.55h1.14v-4.59h-1.14v4.59Zm0,5.48h1.14v-4.52h-1.14v4.52Z"/><path class="cls-1" d="M91.62,33.75l-.28,2.87h-1.04l1.34-12h1.14l1.34,12h-1.11l-.27-2.87h-1.11Zm1.02-.96l-.46-4.74-.46,4.74h.93Z"/><path class="cls-1" d="M106.02,24.62h2.25c.61,0,1.11,.5,1.11,1.11v4.11c0,.24-.07,.59-.51,.76,.44,.2,.51,.54,.51,.78v4.11c0,.62-.5,1.11-1.11,1.13h-2.25v-12Zm1.11,5.55h1.14v-4.59h-1.14v4.59Zm0,5.48h1.14v-4.52h-1.14v4.52Z"/><path class="cls-1" d="M121.85,24.62h1.11v12h-1.11v-12Z"/><path class="cls-1" d="M136.28,33.75l-.28,2.87h-1.04l1.34-12h1.14l1.34,12h-1.11l-.27-2.87h-1.11Zm1.02-.96l-.46-4.74-.46,4.74h.93Z"/><path class="cls-1" d="M153.21,31.4l-.06-6.78h1.04v12h-.84l-1.68-7.56,.08,7.56h-1.04v-12h1.04l1.47,6.78Z"/></g><g><path class="cls-1" d="M75.08,43.63h2.24c.62,0,1.11,.49,1.11,1.11v9.78c0,.62-.49,1.11-1.11,1.11h-2.24v-12Zm1.1,11.04h1.14v-10.08h-1.14v10.08Z"/><path class="cls-1" d="M91.96,54.67h1.64v.96h-2.75v-12h2.75v.96h-1.64v4.56h1.4v.96h-1.4v4.56Z"/><path class="cls-1" d="M105.63,44.74c0-.62,.5-1.11,1.1-1.11h1.08c.6,0,1.1,.49,1.1,1.11v1.7h-1.1v-1.85h-1.08v2.28c0,.39,.09,.57,.27,.93l1.53,2.6c.33,.55,.38,.84,.38,1.29v2.84c0,.62-.5,1.11-1.1,1.11h-1.14c-.61,0-1.11-.5-1.11-1.11v-1.8h1.11v1.95h1.14v-2.85c0-.39-.09-.57-.27-.93l-1.53-2.6c-.33-.55-.38-.82-.38-1.29v-2.27Z"/><path class="cls-1" d="M121.21,43.63h1.11v12h-1.11v-12Z"/><path class="cls-1" d="M136.37,49.01h1.77v5.51c0,.62-.5,1.11-1.11,1.11h-1.14c-.6,0-1.1-.5-1.1-1.11v-9.78c0-.62,.5-1.11,1.1-1.11h1.14c.62,0,1.11,.49,1.11,1.11v1.25h-1.11v-1.4h-1.14v10.08h1.14v-4.7h-.66v-.96Z"/><path class="cls-1" d="M152.88,50.41l-.06-6.78h1.04v12h-.84l-1.68-7.56,.08,7.56h-1.04v-12h1.04l1.47,6.78Z"/></g><g><path class="cls-3" d="M30.34,55.41H7.49V5.77H25.86c16.66,0,29.43,7.31,29.43,25.55,0,14.75-10.4,24.1-24.95,24.1"/><path class="cls-2" d="M21.62,21.31h8.07c3.69,0,7.47,.89,7.47,5.29,0,1.67-.83,3.32-2.51,3.85v.15c2.08,.73,3.39,2.25,3.39,4.53,0,3.92-3.64,5.26-6.98,5.26h-9.44V21.31h0Z"/></g></svg>